<?xml version="1.0" standalone="no"?>
<!DOCTYPE svg PUBLIC "-//W3C//DTD SVG 20010904//EN"
 "http://www.w3.org/TR/2001/REC-SVG-20010904/DTD/svg10.dtd">
<svg version="1.0" xmlns="http://www.w3.org/2000/svg"
 width="512.000000pt" height="512.000000pt" viewBox="0 0 512.000000 512.000000"
 preserveAspectRatio="xMidYMid meet">
<metadata>
Created by potrace 1.14, written by Peter Selinger 2001-2017
</metadata>
<g transform="translate(0.000000,512.000000) scale(0.100000,-0.100000)"
fill="#000000" stroke="none">
<path d="M2266 4622 c-4 -4 -24 -8 -44 -10 -20 -1 -44 -3 -52 -4 -8 0 -21 -6
-29 -12 -12 -9 -13 -8 -6 4 7 12 6 13 -6 3 -8 -7 -25 -12 -37 -13 -55 -1 -62
-2 -62 -8 0 -4 -14 -9 -32 -10 -17 -2 -37 -7 -44 -13 -8 -7 -14 -6 -17 3 -4
10 -6 10 -6 1 -1 -7 -12 -13 -25 -13 -13 0 -27 -7 -30 -16 -5 -13 -9 -14 -21
-4 -10 8 -15 9 -15 2 0 -6 -7 -9 -15 -6 -8 4 -15 1 -15 -7 0 -7 -3 -9 -7 -6
-3 4 -12 2 -20 -4 -7 -6 -13 -9 -13 -5 0 4 -13 0 -29 -8 -16 -9 -31 -12 -35
-9 -3 4 -6 0 -6 -7 0 -7 -3 -10 -7 -7 -3 4 -17 0 -30 -8 -13 -9 -28 -13 -33
-10 -6 3 -10 -2 -10 -12 0 -15 -2 -16 -10 -3 -7 11 -10 11 -10 2 0 -7 -4 -10
-10 -7 -5 3 -10 1 -10 -5 0 -6 -4 -8 -10 -5 -5 3 -10 1 -10 -4 0 -6 -7 -11
-15 -11 -8 0 -15 -4 -15 -9 0 -6 -9 -8 -20 -6 -11 2 -18 1 -16 -3 5 -8 -44
-33 -56 -29 -4 1 -14 -7 -22 -18 -9 -11 -16 -16 -16 -12 0 5 -7 1 -16 -7 -8
-9 -20 -14 -25 -10 -5 3 -8 0 -7 -8 2 -7 -2 -12 -8 -11 -7 1 -20 -7 -29 -17
-10 -11 -22 -20 -27 -20 -5 0 -16 -7 -25 -15 -8 -8 -19 -12 -25 -9 -7 4 -8 2
-4 -4 7 -11 -6 -17 -27 -13 -5 1 -6 -3 -3 -8 3 -5 -10 -18 -29 -30 -19 -11
-35 -25 -35 -31 0 -6 -4 -9 -8 -6 -5 3 -15 -4 -22 -15 -8 -10 -20 -19 -28 -19
-7 0 -10 -4 -7 -10 3 -5 2 -10 -3 -10 -13 0 -152 -136 -152 -150 0 -6 -4 -8
-10 -5 -5 3 -10 2 -10 -3 0 -5 -10 -20 -22 -34 -13 -13 -36 -41 -53 -63 -16
-21 -38 -47 -47 -57 -10 -10 -18 -23 -18 -29 0 -5 -4 -7 -10 -4 -5 3 -7 0 -4
-9 3 -9 -3 -19 -16 -26 -11 -6 -18 -14 -16 -19 3 -4 -6 -20 -19 -35 -14 -16
-22 -32 -20 -36 3 -4 -2 -11 -10 -14 -8 -3 -14 -9 -13 -13 2 -7 -28 -60 -42
-73 -3 -3 -5 -9 -6 -15 -3 -23 -17 -55 -24 -55 -5 0 -11 -13 -15 -30 -4 -16
-11 -30 -16 -30 -6 0 -8 -4 -4 -9 3 -5 1 -12 -5 -16 -6 -4 -8 -11 -5 -16 4 -5
1 -9 -6 -9 -7 0 -9 -3 -6 -6 3 -4 1 -16 -5 -28 -7 -11 -13 -24 -14 -28 -1 -5
-3 -11 -4 -15 -1 -5 -2 -11 -1 -15 0 -5 -4 -8 -10 -8 -5 0 -8 -4 -4 -10 3 -5
1 -17 -4 -27 -11 -20 -25 -74 -23 -85 1 -5 -3 -8 -9 -8 -5 0 -7 -5 -3 -11 3
-6 0 -15 -7 -20 -12 -7 -11 -9 1 -9 10 0 11 -3 3 -8 -6 -4 -13 -23 -15 -42 -1
-19 -10 -41 -18 -48 -8 -8 -9 -11 -2 -7 12 6 17 -7 6 -18 -6 -5 -14 -67 -18
-127 0 -14 -5 -28 -11 -32 -6 -5 -4 -12 5 -18 14 -9 7 -15 -14 -11 -5 1 -4 -4
2 -12 7 -8 9 -17 5 -21 -9 -9 -10 -96 -1 -90 8 5 5 -17 -5 -33 -5 -8 -3 -13 4
-13 8 0 9 -4 0 -13 -8 -10 -7 -17 2 -27 9 -10 9 -11 0 -6 -7 4 -13 2 -13 -3 0
-6 5 -11 10 -11 6 0 10 -5 10 -11 0 -5 -4 -7 -10 -4 -11 7 -14 -8 -3 -19 9 -9
13 -37 4 -32 -9 6 -7 -42 2 -51 12 -11 8 -25 -5 -17 -7 5 -8 3 -2 -7 10 -17
14 -34 15 -74 1 -16 7 -36 13 -44 9 -12 8 -13 -3 -6 -11 6 -12 5 -5 -6 9 -15
12 -29 16 -71 1 -16 5 -28 9 -28 3 0 5 -11 4 -25 -2 -14 1 -25 6 -25 5 0 9 -5
9 -11 0 -5 -6 -7 -12 -3 -7 4 -4 -3 7 -16 12 -14 14 -20 5 -15 -12 6 -13 5 -2
-6 6 -7 12 -24 12 -37 0 -15 4 -21 12 -16 8 5 9 2 5 -11 -4 -9 -2 -25 5 -33
11 -13 11 -14 -2 -7 -9 5 -8 0 4 -13 11 -12 16 -22 12 -22 -4 0 -2 -9 4 -21 7
-11 14 -33 16 -47 3 -15 10 -30 16 -33 6 -4 7 -12 4 -18 -4 -6 -2 -11 4 -11 6
0 8 -4 5 -10 -3 -5 -1 -10 5 -10 7 0 9 -7 6 -15 -3 -9 1 -18 9 -21 8 -4 12
-10 9 -15 -3 -5 0 -9 7 -9 7 0 9 -3 6 -6 -3 -4 -1 -16 5 -28 7 -11 11 -24 10
-28 -1 -5 2 -8 8 -8 5 0 10 -7 10 -15 0 -8 5 -15 11 -15 5 0 7 -4 4 -10 -3 -5
-2 -10 4 -10 6 0 13 -11 17 -25 3 -14 10 -25 15 -25 5 0 6 -7 3 -15 -4 -8 -1
-15 5 -15 6 0 23 -22 39 -50 16 -27 31 -48 34 -45 3 3 11 -8 18 -25 7 -16 16
-30 21 -30 5 0 9 -5 9 -11 0 -7 10 -20 22 -30 11 -11 17 -19 13 -19 -5 0 11
-18 33 -41 23 -22 40 -45 36 -50 -3 -5 -1 -9 4 -9 10 0 52 -35 52 -43 0 -8 49
-57 57 -57 4 0 22 -16 40 -36 18 -20 33 -33 33 -28 0 5 8 -3 18 -19 10 -15 22
-24 25 -20 4 3 7 0 7 -7 0 -7 3 -10 7 -7 3 4 17 -5 30 -19 12 -14 23 -22 23
-18 0 4 11 -5 25 -20 13 -14 31 -26 38 -26 8 0 17 -7 21 -15 3 -8 11 -15 17
-15 6 0 19 -8 28 -17 9 -10 23 -19 31 -21 8 -2 17 -8 18 -13 2 -5 10 -9 18 -9
8 0 14 -4 14 -10 0 -5 3 -9 8 -8 12 3 82 -35 82 -45 0 -5 7 -6 15 -3 9 3 18
-1 21 -9 3 -7 12 -11 20 -8 8 3 14 0 14 -6 0 -5 18 -16 41 -22 23 -7 43 -19
46 -26 3 -7 9 -10 14 -7 13 8 50 -6 44 -17 -3 -5 1 -6 9 -3 8 3 25 -1 38 -9
13 -8 31 -13 41 -12 9 2 17 -1 17 -6 0 -5 11 -9 25 -9 14 0 25 -4 25 -9 0 -6
8 -10 18 -9 26 0 64 -10 75 -21 5 -5 16 -7 23 -4 8 3 22 -1 31 -8 14 -12 16
-12 8 1 -8 13 -6 13 7 2 9 -8 29 -14 45 -16 15 -1 34 -5 41 -9 7 -5 12 -3 12
5 0 10 2 10 9 0 4 -8 11 -13 15 -13 3 1 8 1 11 0 3 0 22 -1 43 -1 20 -1 40 -6
44 -12 5 -7 8 -6 8 3 0 11 3 11 15 1 12 -10 15 -10 15 1 0 12 2 12 9 1 6 -10
36 -14 105 -14 56 -1 92 -5 84 -9 -9 -6 -9 -9 -1 -9 6 0 15 5 18 10 5 8 12 7
23 -2 11 -9 13 -9 9 -1 -6 9 4 12 35 11 24 0 48 1 53 2 6 1 33 2 60 2 28 0 53
5 57 12 5 8 8 7 8 -3 0 -9 4 -10 13 -4 6 6 22 9 35 8 12 -1 22 3 22 8 0 5 7 4
15 -3 9 -8 15 -8 15 -2 0 6 8 11 18 11 19 1 74 8 82 11 3 1 9 2 14 1 4 -1 13
2 20 7 6 5 21 8 34 7 12 -1 22 3 22 8 0 5 9 7 20 4 11 -3 23 -1 26 5 3 5 12 7
20 4 8 -3 14 -1 14 5 0 6 5 7 10 4 6 -3 10 -1 10 5 0 7 6 10 14 7 7 -3 24 1
35 10 12 8 25 12 28 9 4 -3 16 0 27 7 12 8 29 13 38 11 9 -1 19 4 22 12 3 7
14 11 26 9 12 -2 20 1 20 10 0 9 6 12 15 9 8 -4 15 -1 15 7 0 7 3 10 6 6 4 -3
23 2 44 13 21 11 41 16 45 12 5 -4 5 -2 2 4 -4 7 11 18 38 29 25 9 45 21 45
26 0 5 8 9 19 9 10 0 31 12 46 28 16 15 25 21 21 14 -7 -11 -4 -11 13 0 12 7
21 16 21 21 0 4 5 5 10 2 6 -3 10 -2 10 3 0 6 19 21 43 35 23 14 55 37 70 52
15 15 27 25 27 21 0 -6 37 23 74 59 12 11 24 19 28 18 5 -2 8 2 8 7 0 6 9 19
20 30 11 11 20 18 20 15 0 -2 16 11 35 31 19 19 35 37 35 39 0 2 20 25 45 50
25 25 43 45 40 45 -3 0 9 15 26 33 17 17 43 50 58 72 14 22 32 44 39 48 7 5
10 12 7 18 -4 5 1 12 9 15 9 3 16 14 16 23 0 9 9 24 20 34 12 10 18 21 15 26
-2 5 2 11 10 15 8 3 15 12 15 21 0 8 4 15 10 15 5 0 9 3 8 8 -2 10 24 62 32
62 4 0 7 6 7 13 0 6 13 39 29 72 15 33 27 63 26 68 -1 4 3 7 10 7 6 0 8 3 5 7
-4 3 -2 12 4 20 6 7 9 13 5 13 -4 0 0 14 9 30 9 17 13 30 9 30 -4 0 -1 7 6 15
7 8 9 15 6 15 -4 0 -1 10 6 22 11 21 15 37 20 76 1 6 5 12 9 12 4 0 6 11 4 25
-1 14 1 25 6 25 5 0 5 7 2 17 -4 10 -2 14 4 10 6 -4 9 7 8 29 -1 19 2 37 6 40
5 2 6 11 2 19 -3 8 -1 15 4 15 5 0 8 17 7 38 0 20 4 40 10 45 8 5 7 10 -3 16
-8 5 -9 11 -3 15 13 8 15 423 2 431 -7 4 -6 13 0 26 6 10 7 19 3 19 -4 0 -8
10 -9 23 -3 65 -9 107 -15 107 -4 0 -6 14 -5 30 1 17 -1 30 -6 30 -4 0 -7 3
-7 8 4 18 -15 92 -23 92 -5 0 -6 9 -3 20 3 11 2 20 -3 20 -5 0 -9 7 -10 15 -1
8 -3 22 -4 30 -1 8 -4 15 -8 15 -4 0 -7 6 -8 13 -1 27 -11 55 -30 89 -11 20
-18 39 -15 42 4 3 -2 15 -13 27 -10 12 -18 24 -17 28 5 11 -8 41 -17 41 -5 0
-7 7 -4 15 4 8 2 15 -4 15 -5 0 -12 10 -16 23 -3 13 -14 34 -26 46 -11 13 -17
28 -14 32 3 5 0 9 -5 9 -6 0 -11 7 -11 15 0 8 -4 15 -10 15 -5 0 -10 5 -10 10
0 12 -41 73 -53 78 -4 2 -5 8 -1 13 3 5 0 9 -6 9 -6 0 -8 5 -5 10 3 6 -1 10
-10 10 -9 0 -14 4 -10 9 3 6 -4 15 -15 21 -11 6 -20 17 -20 26 0 8 -7 17 -15
20 -8 4 -15 12 -15 19 0 7 -29 43 -65 79 -36 36 -65 71 -65 78 0 6 -3 9 -6 5
-3 -3 -30 19 -59 49 -30 30 -56 54 -60 54 -3 0 -16 10 -29 23 -31 30 -65 57
-71 57 -4 0 -33 22 -59 45 -6 6 -29 22 -51 35 -22 13 -42 27 -45 31 -3 3 -15
9 -28 13 -13 5 -20 12 -16 19 4 7 4 9 0 5 -4 -3 -36 9 -70 28 -35 18 -66 30
-70 26 -4 -4 -6 0 -4 8 2 10 -4 15 -19 14 -14 -1 -23 4 -23 13 0 8 -4 12 -10
8 -9 -6 -15 -3 -76 28 -17 9 -34 14 -38 10 -3 -3 -6 -1 -6 5 0 7 -9 12 -19 12
-11 0 -22 4 -26 10 -3 5 -12 7 -19 4 -8 -3 -17 0 -21 5 -3 6 -11 9 -16 6 -5
-4 -9 -1 -9 4 0 6 -10 11 -23 11 -13 0 -29 6 -36 13 -11 10 -12 9 -6 -3 7 -12
6 -13 -6 -3 -8 6 -26 14 -39 17 -14 3 -40 9 -59 15 -18 6 -36 10 -40 9 -3 0
-8 1 -11 2 -13 5 -48 10 -72 12 -15 0 -25 5 -22 10 3 5 2 8 -3 7 -4 -1 -12 0
-18 1 -5 1 -27 1 -48 0 -21 -1 -45 4 -54 12 -12 9 -15 9 -9 1 4 -8 1 -13 -8
-13 -9 0 -16 4 -16 9 0 12 -398 13 -405 0 -5 -7 -11 -7 -19 0 -7 6 -16 7 -20
3z m37 -615 c-4 -6 -1 -7 8 -1 8 5 17 9 22 10 4 1 8 3 10 4 7 7 287 4 287 -4
0 -5 6 -3 14 3 10 9 16 9 21 1 4 -6 14 -10 23 -8 10 1 23 -1 30 -5 7 -5 12 -3
12 4 0 8 4 8 15 -1 8 -7 15 -9 15 -5 0 4 8 1 17 -6 15 -12 16 -12 8 1 -8 13
-6 13 8 2 9 -8 21 -11 27 -7 5 3 10 2 10 -3 0 -6 9 -8 20 -5 11 3 20 1 20 -4
0 -5 14 -10 32 -11 18 -2 36 -8 40 -15 4 -7 8 -8 8 -2 0 5 5 4 11 -2 6 -6 18
-9 26 -6 8 3 18 1 22 -6 4 -7 18 -13 29 -14 12 -1 22 -5 22 -10 0 -4 4 -6 9
-2 5 3 12 1 16 -5 4 -6 11 -8 16 -5 5 4 9 1 9 -4 0 -6 9 -11 20 -11 11 0 20
-4 20 -10 0 -5 9 -10 20 -10 11 0 20 -3 20 -7 0 -5 11 -13 25 -20 19 -8 24 -8
20 0 -3 7 2 2 11 -10 9 -13 24 -23 33 -23 9 0 29 -11 45 -25 16 -13 37 -27 47
-30 11 -4 17 -10 15 -14 -3 -4 7 -12 22 -19 15 -6 47 -31 72 -54 25 -24 50
-42 56 -40 16 3 12 -31 -4 -41 -7 -5 -10 -12 -7 -18 6 -8 -8 -13 -27 -10 -5 0
-7 -3 -5 -7 1 -5 -17 -27 -39 -50 -23 -22 -39 -44 -35 -47 3 -4 1 -6 -4 -5
-22 5 -35 -1 -35 -15 0 -19 -30 -8 -48 17 -7 10 -17 18 -23 18 -5 0 -28 18
-51 40 -24 22 -48 40 -55 40 -6 0 -13 5 -15 11 -2 5 -12 12 -23 13 -11 2 -19
9 -17 16 2 7 -3 10 -11 7 -8 -3 -24 3 -35 13 -11 10 -23 16 -26 13 -3 -4 -6
-1 -6 6 0 7 -4 9 -10 6 -5 -3 -10 -3 -10 2 0 4 -11 13 -25 20 -15 6 -22 7 -19
1 4 -6 -5 -3 -18 6 -14 9 -28 13 -31 9 -4 -3 -7 -1 -7 5 0 7 -8 12 -18 12 -10
0 -22 4 -28 9 -5 5 -22 11 -39 13 -16 1 -33 7 -36 11 -3 4 -22 9 -42 10 -21 1
-37 5 -37 8 0 4 -10 7 -22 8 -48 1 -63 4 -77 15 -12 9 -13 8 -6 -4 8 -13 7
-13 -8 -1 -13 10 -17 10 -17 1 0 -10 -3 -10 -15 0 -12 10 -15 10 -15 -1 0 -9
-3 -10 -8 -3 -10 15 -142 15 -142 0 0 -6 -4 -5 -9 3 -8 12 -12 12 -25 2 -12
-11 -16 -11 -16 -1 0 9 -4 9 -17 -1 -15 -12 -16 -12 -8 1 7 12 6 13 -7 3 -8
-7 -17 -11 -19 -9 -2 3 -27 0 -54 -6 -28 -5 -63 -12 -80 -15 -16 -2 -34 -9
-39 -14 -15 -13 -28 -11 -20 4 6 9 5 9 -8 0 -8 -7 -19 -9 -23 -5 -5 4 -5 2 -2
-4 6 -11 -54 -31 -75 -26 -5 1 -8 -3 -8 -9 0 -6 -6 -9 -14 -6 -8 3 -17 -1 -20
-10 -4 -9 -9 -13 -13 -9 -3 3 -15 -2 -26 -11 -12 -11 -17 -12 -12 -4 4 8 -13
-1 -39 -18 -26 -18 -50 -31 -53 -28 -2 3 -13 -2 -23 -11 -35 -32 -50 -43 -50
-36 0 3 -9 -4 -20 -17 -10 -13 -19 -21 -20 -17 0 10 -44 -29 -129 -114 -93
-95 -101 -104 -94 -112 4 -3 -1 -6 -10 -6 -9 0 -17 -7 -17 -15 0 -8 -9 -23
-19 -32 -11 -9 -18 -20 -15 -25 3 -4 0 -8 -5 -8 -6 0 -11 -7 -11 -15 0 -8 -5
-15 -11 -15 -5 0 -7 -5 -4 -10 3 -6 -1 -13 -9 -16 -9 -3 -14 -10 -11 -14 3 -4
-2 -13 -10 -20 -7 -6 -11 -18 -8 -26 3 -8 1 -14 -4 -14 -12 0 -45 -79 -38 -90
3 -4 -2 -11 -11 -14 -8 -3 -14 -14 -13 -23 1 -10 -3 -30 -9 -45 -6 -15 -9 -37
-7 -48 3 -14 0 -20 -8 -17 -8 3 -12 -9 -12 -42 1 -25 -3 -51 -8 -58 -5 -7 -6
-17 -2 -23 3 -5 1 -10 -5 -10 -8 0 -8 -6 0 -20 6 -11 7 -20 3 -20 -5 0 -8 -43
-8 -95 0 -56 4 -95 10 -95 6 0 4 -4 -4 -9 -9 -6 -10 -11 -3 -15 6 -4 8 -14 5
-22 -3 -9 0 -20 8 -25 11 -7 11 -9 1 -9 -8 0 -10 -5 -5 -12 8 -13 10 -22 17
-73 3 -16 5 -30 6 -30 1 0 3 -11 6 -24 2 -14 9 -30 15 -38 9 -10 8 -13 -2 -13
-8 0 -6 -5 6 -13 10 -8 15 -19 11 -25 -4 -7 -2 -12 3 -12 6 0 11 -7 11 -15 0
-17 20 -56 33 -66 5 -3 8 -10 8 -15 -1 -17 10 -44 20 -44 5 0 8 -3 7 -7 -3
-14 13 -53 22 -53 5 0 12 -9 15 -20 4 -11 19 -32 33 -47 15 -14 21 -22 15 -19
-7 4 -13 3 -13 -2 0 -5 11 -15 25 -22 14 -7 23 -16 20 -18 -3 -3 9 -18 25 -34
16 -15 27 -28 24 -28 -4 0 9 -13 29 -29 20 -15 34 -31 30 -35 -3 -3 1 -6 11
-6 9 0 19 -7 22 -15 4 -8 12 -15 20 -15 8 0 13 -3 12 -7 -2 -5 1 -9 6 -10 5 0
13 -8 18 -17 5 -9 16 -16 23 -16 8 0 15 -4 15 -10 0 -5 9 -10 21 -10 11 0 18
-3 16 -7 -6 -10 13 -27 33 -31 8 -2 20 -9 25 -16 6 -7 16 -11 23 -9 6 3 12 1
12 -4 0 -5 20 -17 45 -27 25 -11 45 -23 45 -28 0 -5 4 -6 10 -3 5 3 20 0 32
-7 25 -13 34 -16 78 -25 16 -3 27 -10 24 -15 -4 -6 1 -8 14 -4 11 4 23 2 26
-3 4 -5 18 -8 32 -5 18 3 23 1 18 -7 -5 -9 -1 -10 14 -7 12 4 24 2 27 -3 3 -4
12 -6 19 -3 8 3 17 0 21 -6 5 -8 11 -8 21 1 8 6 14 7 14 2 0 -5 63 -10 146
-11 114 -2 144 1 138 11 -5 9 -4 9 6 0 11 -10 17 -10 29 0 12 10 13 9 6 -3 -7
-12 -6 -13 6 -4 8 6 30 11 51 10 20 0 34 2 32 5 -5 9 45 21 56 14 6 -4 10 -1
10 5 0 6 4 9 9 5 5 -3 12 -1 15 4 3 5 15 7 26 4 12 -3 20 0 20 6 0 7 5 9 10 6
6 -3 10 -1 10 5 0 6 4 9 8 6 4 -2 26 4 49 14 23 10 44 16 47 12 3 -3 6 -1 6 4
0 6 16 16 35 24 19 8 35 18 35 22 0 5 4 7 9 3 5 -3 16 1 24 9 8 8 17 12 21 9
3 -4 6 -1 6 5 0 7 7 12 15 12 8 0 15 5 15 10 0 6 12 15 27 21 15 6 34 17 43
25 50 47 83 74 93 74 6 0 8 3 4 6 -3 3 14 24 39 45 25 21 42 39 37 39 -4 0 0
5 10 11 9 6 15 14 12 20 -4 5 -1 9 4 9 12 0 51 36 46 42 -3 2 7 17 20 32 13
16 27 37 30 47 4 11 11 19 16 19 6 0 7 4 4 10 -3 5 -3 10 2 10 9 0 39 61 35
73 -1 4 2 7 8 7 5 0 14 10 21 21 9 17 8 20 -3 13 -10 -6 -11 -5 -1 8 7 8 10
18 6 21 -3 4 -1 7 5 7 6 0 14 16 18 35 3 19 9 33 13 31 4 -3 7 3 8 12 5 56 9
72 17 72 4 0 6 11 4 25 -3 14 0 29 6 34 16 13 14 97 -1 93 -7 -1 -13 3 -13 9
0 8 -5 8 -15 -1 -12 -10 -15 -10 -15 0 0 10 -3 10 -15 0 -11 -9 -15 -9 -15 -1
0 7 -5 9 -12 5 -17 -11 -48 -12 -54 -3 -2 5 -15 4 -28 -1 -15 -5 -27 -5 -35 3
-7 7 -11 7 -11 1 0 -6 -7 -11 -15 -11 -8 0 -15 5 -15 11 0 6 -5 5 -12 -2 -8
-8 -15 -9 -25 -1 -7 7 -13 7 -13 2 0 -5 -7 -10 -15 -10 -8 0 -15 4 -15 8 0 5
-11 4 -25 -1 -14 -5 -27 -5 -30 0 -3 5 -18 5 -35 0 -19 -5 -28 -5 -25 1 4 5
-4 5 -19 -1 -17 -6 -27 -6 -32 1 -4 6 -11 6 -20 -2 -11 -9 -14 -9 -14 1 0 10
-3 10 -15 0 -12 -10 -15 -10 -15 0 0 10 -4 10 -16 -1 -13 -10 -17 -10 -25 2
-8 13 -13 6 -10 -13 0 -5 -4 -8 -10 -8 -5 0 -7 -4 -4 -10 3 -5 1 -10 -5 -10
-6 0 -9 -4 -6 -8 3 -5 -6 -31 -19 -59 -13 -28 -21 -54 -17 -57 3 -3 0 -6 -6
-6 -5 0 -20 -15 -31 -33 -11 -18 -29 -44 -41 -56 -11 -13 -20 -28 -20 -33 0
-4 -3 -7 -7 -7 -18 3 -36 -2 -30 -7 8 -9 -65 -64 -75 -58 -5 3 -8 -2 -8 -11 0
-9 -4 -14 -9 -10 -5 3 -15 -1 -23 -8 -7 -8 -21 -13 -31 -11 -10 1 -17 -4 -17
-13 0 -9 -6 -13 -15 -9 -8 3 -15 1 -15 -5 0 -6 -4 -7 -10 -4 -5 3 -10 0 -10
-7 0 -9 -3 -9 -10 2 -5 8 -10 10 -10 5 0 -6 -8 -12 -17 -13 -23 -2 -58 -10
-58 -12 0 -8 -181 -3 -222 6 -29 7 -53 9 -53 6 0 -4 -5 1 -11 11 -6 9 -15 15
-20 11 -5 -3 -17 0 -26 8 -14 11 -16 11 -9 -1 5 -7 -8 -2 -29 12 -21 14 -43
23 -48 20 -6 -3 -7 -1 -3 5 4 7 1 12 -8 12 -9 0 -16 5 -16 11 0 5 -4 8 -8 5
-5 -3 -16 6 -26 20 -11 13 -23 24 -28 24 -11 0 -72 61 -74 74 -1 4 -11 18 -21
30 -11 12 -26 36 -33 53 -8 18 -17 30 -21 27 -4 -2 -6 8 -6 23 0 15 -6 29 -12
31 -6 2 -11 17 -11 32 0 16 -4 31 -9 34 -5 4 -8 17 -6 31 1 14 -1 25 -4 25 -3
0 -5 35 -4 77 3 73 8 128 12 128 2 0 4 11 7 24 2 14 10 31 17 40 9 11 9 13 0
8 -7 -5 -2 11 10 35 12 24 25 45 30 46 4 2 7 10 7 18 0 8 5 14 11 14 5 0 8 4
4 9 -3 5 5 17 17 25 12 9 19 16 14 16 -5 0 3 11 18 25 14 13 26 30 26 36 0 7
3 10 6 6 4 -3 20 7 36 23 16 17 36 30 44 30 9 0 13 4 10 8 -6 10 134 76 142
68 2 -3 11 1 18 9 8 8 21 12 29 9 8 -4 15 -1 15 6 0 10 3 10 15 0 12 -10 15
-10 15 0 0 10 3 10 16 0 12 -11 15 -11 12 0 -4 16 21 20 40 7 8 -6 12 -5 12 2
0 11 39 9 59 -3 5 -4 12 -2 15 3 9 14 42 5 38 -10 -2 -9 0 -10 10 -1 8 6 19 7
27 2 8 -4 20 -6 28 -3 7 3 13 0 13 -6 0 -6 7 -8 15 -5 8 4 15 1 15 -5 0 -6 7
-8 15 -5 8 4 15 1 15 -6 0 -6 4 -9 9 -5 5 3 13 0 16 -6 4 -5 13 -8 21 -5 7 3
18 -3 23 -12 5 -9 13 -17 18 -17 4 0 7 -4 5 -8 -1 -5 2 -6 7 -3 5 4 16 0 24
-8 8 -8 17 -12 21 -9 3 4 6 1 6 -5 0 -7 7 -12 16 -12 8 0 12 -4 9 -10 -3 -5
-3 -10 2 -10 10 0 78 -60 68 -60 -5 0 2 -9 15 -20 13 -11 20 -20 16 -20 -4 0
2 -10 13 -22 11 -11 18 -24 16 -28 -2 -3 4 -12 15 -20 10 -7 16 -20 13 -28 -3
-8 0 -18 7 -22 7 -5 14 -16 16 -27 4 -29 16 -63 23 -64 38 -6 861 -2 861 4 0
5 7 2 15 -7 9 -8 17 -32 18 -53 1 -21 6 -44 11 -52 6 -9 5 -12 -2 -7 -14 8
-12 -34 2 -53 8 -11 8 -13 -2 -7 -8 5 -11 1 -8 -16 2 -13 -1 -29 -6 -35 -7 -9
-7 -13 1 -13 7 0 8 -8 2 -22 -4 -13 -6 -29 -3 -37 2 -7 -2 -17 -9 -22 -12 -7
-12 -9 0 -9 10 0 11 -3 3 -13 -6 -7 -9 -25 -8 -40 2 -15 -1 -27 -6 -27 -5 0
-6 -4 -3 -10 3 -5 0 -10 -7 -11 -10 0 -10 -2 -1 -6 10 -3 10 -10 2 -25 -6 -11
-8 -26 -5 -34 3 -8 0 -17 -8 -20 -7 -3 -13 -10 -14 -17 -3 -42 -7 -57 -15 -57
-4 0 -6 -4 -2 -9 3 -5 1 -12 -5 -16 -6 -4 -8 -10 -5 -15 3 -5 -1 -15 -9 -23
-8 -8 -13 -17 -10 -20 3 -3 -2 -16 -10 -29 -9 -14 -13 -28 -9 -31 3 -4 2 -7
-4 -7 -10 0 -26 -36 -24 -52 1 -5 -3 -8 -9 -8 -5 0 -10 -6 -10 -13 0 -7 -8
-22 -17 -33 -10 -11 -19 -26 -21 -34 -2 -8 -8 -17 -13 -18 -5 -2 -7 -8 -3 -13
3 -5 -2 -12 -10 -15 -9 -3 -16 -10 -16 -15 0 -6 -9 -19 -20 -31 -11 -12 -20
-28 -20 -35 0 -8 -4 -11 -10 -8 -5 3 -10 2 -10 -4 0 -6 -13 -24 -29 -40 -16
-16 -26 -32 -23 -35 3 -3 -2 -6 -12 -6 -9 0 -14 -5 -11 -10 3 -6 -1 -13 -9
-16 -9 -3 -13 -11 -9 -17 4 -6 0 -8 -10 -4 -10 3 -17 2 -17 -4 0 -6 -13 -24
-30 -41 -16 -16 -30 -27 -30 -23 0 3 -12 -6 -27 -20 -16 -14 -35 -32 -44 -40
-9 -8 -19 -15 -23 -15 -4 0 -14 -6 -22 -13 -8 -6 -20 -17 -27 -22 -36 -30 -99
-65 -107 -60 -6 3 -10 -1 -10 -10 0 -9 -4 -13 -10 -10 -5 3 -10 1 -10 -5 0 -6
-4 -9 -9 -6 -5 3 -14 -1 -21 -9 -7 -8 -16 -12 -21 -9 -5 3 -9 0 -9 -6 0 -7 -6
-10 -12 -8 -7 3 -19 -1 -26 -9 -8 -7 -18 -11 -23 -8 -5 4 -9 1 -9 -5 0 -6 -4
-9 -9 -5 -5 3 -12 1 -16 -5 -3 -5 -15 -10 -26 -10 -11 0 -18 -4 -15 -8 2 -4
-4 -9 -15 -10 -10 -1 -27 -2 -36 -3 -10 -1 -21 -6 -24 -12 -4 -5 -18 -9 -33
-9 -14 0 -26 -5 -26 -11 0 -6 -3 -8 -6 -4 -3 3 -17 2 -30 -3 -17 -7 -24 -6
-24 3 0 7 -4 6 -10 -4 -6 -10 -23 -15 -50 -15 -22 1 -40 -3 -40 -7 0 -5 -4 -6
-9 -2 -5 3 -12 1 -16 -5 -4 -7 -12 -7 -25 0 -10 6 -21 6 -24 1 -8 -12 -308
-11 -323 1 -8 6 -13 7 -13 1 0 -17 -30 -10 -31 6 0 10 -2 12 -6 4 -2 -7 -9
-13 -14 -13 -6 0 -8 3 -5 8 2 4 -16 7 -40 7 -24 -1 -44 3 -44 8 0 5 -14 7 -30
5 -17 -3 -33 -1 -36 4 -3 5 -10 5 -16 2 -7 -4 -8 -2 -4 4 6 11 -19 18 -46 13
-5 0 -8 3 -8 9 0 6 -3 9 -7 8 -18 -5 -74 12 -69 21 3 5 -3 7 -14 4 -12 -3 -20
0 -20 8 0 7 -3 9 -7 6 -3 -4 -17 0 -31 9 -17 11 -22 12 -17 3 5 -8 -1 -5 -13
5 -12 11 -22 16 -22 12 0 -4 -7 0 -16 8 -8 9 -19 14 -24 11 -5 -3 -10 -1 -12
4 -1 5 -10 11 -18 13 -8 2 -22 11 -31 20 -9 10 -19 15 -23 11 -3 -3 -6 -1 -6
6 0 7 -6 11 -12 8 -7 -2 -21 5 -30 16 -10 11 -18 16 -18 11 0 -5 -6 -2 -13 6
-7 8 -29 26 -49 40 -21 14 -38 28 -38 33 0 4 -4 7 -10 7 -5 0 -27 16 -47 35
-20 19 -41 35 -46 35 -4 0 -6 4 -2 9 3 5 -4 12 -15 16 -11 4 -18 11 -15 16 4
5 -1 9 -9 9 -9 0 -16 4 -16 9 0 5 -16 25 -35 45 -19 20 -32 36 -28 36 3 0 -4
8 -15 19 -12 10 -22 23 -22 29 0 5 -7 13 -16 16 -9 4 -14 9 -11 12 3 4 -5 18
-19 33 -14 14 -27 36 -30 49 -4 12 -10 22 -15 22 -5 0 -9 5 -9 11 0 6 -7 17
-15 26 -8 8 -13 19 -10 24 4 5 2 9 -3 9 -5 0 -15 18 -22 40 -7 22 -16 40 -21
40 -4 0 -10 7 -13 16 -3 9 -2 12 4 9 6 -4 2 8 -9 26 -11 18 -18 36 -15 41 3 4
1 8 -3 8 -5 0 -10 12 -11 27 -1 15 -7 30 -12 33 -6 4 -11 23 -12 43 -1 21 -5
34 -11 30 -6 -4 -8 2 -5 15 4 12 2 24 -2 27 -4 3 -6 14 -3 25 3 11 0 20 -6 20
-6 0 -10 8 -9 18 1 9 0 36 0 60 -2 32 -5 41 -14 36 -8 -5 -8 -1 1 10 12 14 12
19 2 25 -15 9 -14 20 2 40 10 12 9 13 -3 6 -13 -8 -13 -7 -1 8 9 11 10 17 2
17 -13 0 -10 22 4 32 7 5 6 8 -1 8 -6 0 -10 14 -10 30 0 17 2 30 6 30 3 0 6 9
6 20 0 11 -3 20 -6 20 -4 0 -7 7 -7 15 0 8 3 12 7 10 4 -2 8 15 8 38 1 23 5
53 8 67 12 56 16 76 17 93 1 9 4 17 8 17 4 0 6 13 5 30 -1 16 4 32 10 34 7 3
11 14 9 26 -2 11 1 20 6 20 6 0 7 4 4 10 -3 5 1 20 10 33 8 13 12 27 9 30 -4
4 1 9 10 13 9 3 13 10 10 15 -3 6 0 16 6 24 6 8 9 19 5 25 -3 5 1 10 10 10 9
0 13 5 10 10 -3 6 1 17 9 26 9 8 16 24 16 33 0 10 10 26 23 35 12 9 16 14 9
10 -11 -5 -11 -2 -1 14 7 12 18 18 24 15 5 -4 7 -3 3 2 -4 4 -2 17 4 29 7 11
11 25 10 29 -1 5 2 5 8 2 7 -4 14 2 17 14 3 12 10 21 15 21 5 0 6 5 3 10 -3 6
1 10 10 10 9 0 13 5 10 10 -3 6 1 13 9 16 8 3 18 14 21 25 4 11 11 17 16 14 5
-4 9 -1 9 4 0 16 126 142 134 134 3 -3 6 1 6 10 0 8 9 19 20 22 11 3 20 11 20
16 0 5 5 9 11 9 7 0 23 12 37 28 13 15 21 20 17 12 -6 -13 -5 -13 7 0 22 26
128 91 138 85 5 -3 12 0 17 7 11 18 93 59 104 52 5 -3 8 0 7 8 -2 8 7 13 24
12 15 0 26 4 25 10 -1 6 7 10 18 10 11 0 24 7 29 14 7 12 10 12 17 1 5 -9 9
-9 9 -3 0 11 26 21 70 30 33 6 106 26 120 32 8 4 34 7 58 7 29 0 41 4 38 12
-3 7 1 10 9 6 8 -3 12 -10 8 -16z"/>
</g>
</svg>
