<?xml version="1.0" standalone="no"?>
<!DOCTYPE svg PUBLIC "-//W3C//DTD SVG 20010904//EN"
 "http://www.w3.org/TR/2001/REC-SVG-20010904/DTD/svg10.dtd">
<svg version="1.0" xmlns="http://www.w3.org/2000/svg"
 width="746.000000pt" height="358.000000pt" viewBox="0 0 746.000000 358.000000"
 preserveAspectRatio="xMidYMid meet">

<g transform="translate(0.000000,358.000000) scale(0.100000,-0.100000)"
fill="#000000" stroke="none">
<path d="M3642 3525 c-164 -37 -310 -156 -359 -295 -13 -37 -24 -50 -48 -59
-122 -44 -131 -218 -14 -270 33 -15 45 -29 73 -87 41 -86 103 -157 179 -204
l58 -37 -54 -12 c-111 -25 -243 -105 -286 -175 -32 -51 -181 -465 -181 -501 0
-21 -9 -44 -25 -63 -22 -26 -25 -37 -19 -72 7 -40 6 -42 -15 -35 -12 3 -21 2
-21 -4 0 -5 -14 -49 -32 -98 -20 -56 -42 -97 -60 -114 -28 -25 -29 -28 -16
-59 13 -30 26 -39 138 -85 127 -52 146 -68 120 -100 -10 -12 -40 -15 -136 -15
-137 0 -136 -1 -109 63 26 62 22 70 -30 63 -47 -7 -57 1 -29 25 14 11 12 14
-12 27 -26 14 -29 13 -46 -8 -10 -12 -18 -31 -18 -42 0 -20 42 -68 60 -68 5 0
10 -18 10 -40 0 -71 19 -80 168 -80 176 0 175 -1 237 174 27 74 50 134 52 133
6 -7 -82 -843 -93 -879 -3 -10 -48 -51 -99 -93 -52 -42 -99 -85 -105 -95 -18
-34 -12 -75 16 -101 25 -24 28 -24 247 -26 124 -2 237 2 258 7 45 12 64 40 85
122 9 35 58 217 110 406 52 189 94 346 95 350 0 4 5 -4 10 -18 13 -31 186
-644 205 -723 8 -32 21 -72 30 -88 27 -53 56 -58 312 -56 229 2 231 2 256 26
27 26 34 67 16 101 -5 10 -48 48 -95 85 -47 36 -93 77 -101 91 -16 24 -33 141
-74 529 -11 110 -25 236 -30 280 -4 44 -7 81 -6 82 1 1 24 -59 52 -135 62
-172 62 -172 242 -172 142 0 162 10 162 78 0 32 5 41 25 50 14 7 30 23 37 37
17 39 -2 68 -81 121 -66 43 -72 51 -95 113 -14 36 -71 190 -126 341 -174 473
-168 459 -224 514 -55 54 -160 109 -241 127 l-53 12 59 39 c78 53 135 118 177
206 25 53 41 74 58 78 33 8 82 67 89 108 14 70 -22 140 -85 166 -23 9 -38 30
-65 85 -38 80 -117 168 -188 209 -107 63 -250 87 -365 61z m242 -65 c129 -40
242 -153 287 -287 17 -53 21 -82 17 -161 -3 -83 -8 -107 -35 -164 -34 -72
-105 -156 -163 -193 -231 -145 -537 -56 -652 192 -44 92 -51 217 -19 322 40
132 155 249 286 291 82 26 194 26 279 0z m-609 -430 c0 -101 -7 -109 -56 -61
-33 33 -37 67 -14 111 15 29 28 38 55 39 12 1 15 -15 15 -89z m994 66 c39 -41
29 -116 -19 -141 -16 -8 -30 -15 -32 -15 -2 0 -3 41 -3 90 0 100 10 112 54 66z
m-539 -671 c0 -108 -1 -115 -20 -115 -79 0 -196 -87 -241 -177 -33 -67 -33
-188 0 -253 46 -89 118 -146 215 -171 43 -11 46 -13 46 -45 l0 -34 -212 0
-213 0 5 402 5 402 40 23 c75 43 213 75 348 82 l27 1 0 -115z m245 89 c39 -7
99 -28 135 -46 l65 -33 3 -92 c2 -74 6 -93 17 -93 12 0 15 16 15 78 l1 77 28
-33 c18 -21 59 -115 114 -265 48 -128 87 -236 87 -239 0 -8 -200 -132 -204
-127 -20 24 -26 65 -26 183 0 118 -2 135 -15 129 -14 -5 -15 -34 -13 -214 l3
-209 -212 0 -213 0 0 34 c0 32 3 34 46 45 129 33 216 125 240 255 11 60 -16
41 -33 -23 -7 -30 -27 -72 -43 -95 -152 -206 -474 -119 -497 136 -11 113 46
218 146 270 63 33 151 38 227 12 30 -10 50 -12 56 -6 11 11 -87 52 -122 52
-19 0 -20 7 -20 116 l0 116 73 -7 c39 -4 104 -13 142 -21z m-695 -426 c-1
-252 -3 -317 -15 -331 -13 -18 -19 -15 -115 43 -87 54 -100 65 -94 84 3 11 42
118 86 236 68 183 114 280 134 280 2 0 4 -141 4 -312z m-41 -373 c1 -2 -8 -37
-21 -77 l-25 -73 -126 -3 c-70 -1 -127 -1 -127 2 0 6 90 258 96 267 3 6 180
-96 203 -116z m1265 -16 c25 -72 46 -133 46 -135 0 -3 -57 -3 -126 -2 l-126 3
-24 65 c-13 36 -24 70 -24 75 0 11 178 125 196 125 6 0 32 -59 58 -131z m-310
-130 c14 -72 14 -72 -96 -111 -57 -20 -160 -57 -229 -83 l-126 -46 -174 65
c-96 35 -198 72 -226 82 -57 20 -60 27 -47 93 l7 31 442 0 443 0 6 -31z
m-1019 -56 c-4 -10 -20 -55 -37 -100 -16 -46 -33 -83 -38 -83 -4 0 -52 19
-106 41 -55 23 -110 45 -124 51 l-24 9 31 29 c17 16 34 39 38 50 6 19 15 20
137 20 120 0 130 -1 123 -17z m1400 -3 c3 -11 22 -32 41 -48 l35 -29 -131 -53
c-72 -29 -133 -50 -136 -47 -5 5 -73 186 -74 195 0 1 58 2 129 2 120 0 130 -1
136 -20z m-1057 -125 c172 -63 212 -81 212 -96 0 -18 -12 -19 -229 -19 -127 0
-232 3 -234 8 -9 16 16 193 27 189 6 -2 107 -39 224 -82z m696 28 c4 -32 9
-77 13 -100 l5 -43 -236 0 c-225 0 -236 1 -236 19 0 15 24 28 118 62 64 23
162 59 217 80 55 21 103 38 106 39 4 0 10 -26 13 -57z m516 -45 c0 -6 -18 -7
-50 -3 l-50 7 20 -51 c33 -84 37 -81 -104 -81 -127 0 -140 4 -148 43 -2 15 22
29 137 76 l140 58 28 -19 c15 -11 27 -24 27 -30z m-1030 -130 c-1 -7 -18 -74
-38 -148 l-38 -135 -197 -3 -197 -2 5 42 c9 72 25 237 25 248 0 6 74 10 220
10 170 0 220 -3 220 -12z m534 -10 c6 -26 26 -233 26 -260 0 -17 -16 -18 -195
-18 l-194 0 -20 68 c-30 100 -61 216 -61 224 0 5 99 8 220 8 l220 0 4 -22z
m-624 -320 c-1 -7 -16 -67 -34 -133 l-33 -120 -172 -3 c-161 -2 -171 -1 -171
16 0 19 17 162 26 220 l5 32 189 0 c146 0 190 -3 190 -12z m669 -90 c7 -57 14
-118 18 -135 l5 -33 -174 0 -174 0 -34 123 c-18 67 -35 128 -38 135 -3 9 39
12 190 12 l195 0 12 -102z m-749 -202 c0 -20 -63 -243 -72 -253 -6 -7 -27 -13
-47 -13 -33 0 -46 10 -139 103 l-102 102 12 33 12 32 168 0 c92 0 168 -2 168
-4z m780 -14 c0 -10 5 -23 12 -30 10 -10 -10 -35 -92 -117 -95 -95 -108 -105
-141 -105 -20 0 -42 6 -48 14 -11 13 -70 217 -71 244 0 9 41 12 170 12 157 0
170 -1 170 -18z m-1065 -162 l90 -90 -177 0 c-108 0 -179 4 -183 10 -13 21 8
47 87 108 45 34 84 62 87 62 4 0 47 -40 96 -90z m1180 34 c98 -75 111 -89 95
-109 -10 -12 -42 -15 -181 -15 -93 0 -169 3 -169 6 0 10 164 173 174 173 5 1
41 -24 81 -55z"/>
<path d="M3534 3064 c-31 -15 -54 -50 -54 -80 0 -32 31 -73 63 -83 60 -20 117
20 117 82 0 41 -17 67 -55 83 -41 17 -33 17 -71 -2z m85 -40 c26 -33 27 -58 1
-84 -42 -42 -110 -14 -110 46 0 61 71 86 109 38z"/>
<path d="M3550 2998 c0 -4 6 -8 14 -8 8 0 17 -8 19 -17 3 -12 5 -10 6 7 1 19
-4 26 -19 26 -11 0 -20 -4 -20 -8z"/>
<path d="M3883 3065 c-106 -46 -38 -208 69 -164 29 12 58 54 58 84 0 32 -30
73 -61 84 -18 6 -32 11 -33 11 -1 -1 -15 -7 -33 -15z m81 -34 c11 -12 16 -31
14 -52 -6 -63 -91 -80 -116 -24 -16 34 -15 38 9 69 25 31 68 35 93 7z"/>
<path d="M3891 2980 c1 -17 3 -19 6 -7 2 9 11 17 18 17 7 0 16 -8 18 -17 3
-12 5 -10 6 7 1 20 -4 25 -24 25 -20 0 -25 -5 -24 -25z"/>
<path d="M3580 2809 c0 -69 71 -152 140 -164 71 -12 161 45 180 114 18 64 25
61 -155 61 -116 0 -165 -3 -165 -11z m300 -31 c0 -28 -42 -80 -75 -94 -45 -18
-79 -18 -122 3 -34 16 -73 64 -73 91 0 9 34 12 135 12 101 0 135 -3 135 -12z"/>
<path d="M3738 2753 c12 -2 22 -11 22 -18 0 -7 -10 -16 -22 -18 -20 -4 -19 -4
5 -6 23 -1 27 3 27 24 0 21 -4 25 -27 24 -24 -2 -25 -2 -5 -6z"/>
<path d="M3211 3038 c-1 -23 3 -28 22 -28 17 0 22 6 22 25 0 14 -3 25 -7 25
-5 0 -8 -9 -8 -20 0 -27 -18 -25 -23 3 -4 19 -4 18 -6 -5z"/>
<path d="M4235 3036 c0 -18 7 -26 23 -29 19 -4 22 0 21 27 -1 23 -3 26 -6 9
-5 -28 -23 -30 -23 -3 0 11 -3 20 -7 20 -5 0 -8 -11 -8 -24z"/>
<path d="M3360 2351 c-7 -13 -7 -22 0 -26 5 -3 10 -2 10 4 0 5 6 11 14 13 12
2 12 5 0 16 -11 10 -15 8 -24 -7z"/>
<path d="M3442 2345 c0 -16 2 -22 5 -12 2 9 2 23 0 30 -3 6 -5 -1 -5 -18z"/>
<path d="M3480 2345 c0 -14 5 -25 10 -25 6 0 10 6 10 13 0 8 4 7 10 -3 9 -13
11 -13 19 -1 14 21 2 41 -25 41 -19 0 -24 -5 -24 -25z"/>
<path d="M3952 2345 c-7 -15 -8 -25 -2 -25 6 0 10 5 10 10 0 6 10 10 23 11 15
0 17 2 7 6 -8 3 -18 10 -21 15 -3 5 -11 -3 -17 -17z"/>
<path d="M4032 2345 c0 -16 2 -22 5 -12 2 9 2 23 0 30 -3 6 -5 -1 -5 -18z"/>
<path d="M4080 2361 c0 -5 -3 -18 -7 -28 -6 -16 -5 -17 12 -3 11 9 16 10 11 3
-4 -8 -2 -13 7 -13 17 0 26 19 20 38 -5 14 -43 17 -43 3z"/>
<path d="M3959 2199 c-23 -9 -26 -15 -26 -56 0 -40 2 -44 13 -29 7 10 19 16
26 13 10 -4 10 -6 1 -6 -7 -1 -13 -6 -13 -11 0 -7 7 -7 21 0 15 8 24 8 34 0 9
-7 15 -8 20 0 3 5 1 10 -5 10 -6 0 -8 5 -4 11 3 6 0 15 -7 20 -12 7 -11 9 1
10 8 0 4 5 -10 9 -23 7 -23 8 -3 9 24 1 43 21 19 21 -8 0 -20 2 -28 4 -7 3
-25 0 -39 -5z"/>
<path d="M4079 2203 c-21 -5 -32 -43 -17 -60 7 -9 7 -13 -1 -13 -6 0 -11 -6
-11 -12 0 -17 71 -22 82 -6 6 10 8 10 8 1 0 -7 4 -13 9 -13 6 0 4 90 -3 96 -5
5 -54 10 -67 7z m58 -69 c-3 -3 -12 -4 -19 -1 -8 3 -5 6 6 6 11 1 17 -2 13 -5z"/>
<path d="M3627 2023 c-11 -10 -8 -45 3 -38 6 4 7 11 4 17 -4 6 1 6 14 -1 11
-6 23 -16 25 -23 3 -7 6 3 6 22 1 26 -2 31 -9 20 -6 -10 -10 -11 -10 -2 0 13
-22 17 -33 5z"/>
<path d="M3690 2002 c0 -29 -1 -29 52 -23 4 1 7 12 6 26 -2 20 -8 25 -30 25
-24 0 -28 -4 -28 -28z"/>
<path d="M3758 2024 c-14 -13 6 -44 27 -44 17 0 23 6 23 25 0 19 -6 25 -23 25
-12 0 -24 -3 -27 -6z"/>
<path d="M3820 2006 c0 -25 20 -39 44 -30 8 3 13 13 11 22 -2 9 -4 20 -4 25
-1 4 -12 7 -26 7 -20 0 -25 -5 -25 -24z"/>
<path d="M4248 1935 c-5 -22 -2 -25 23 -25 24 0 29 4 29 25 0 14 -5 25 -11 25
-5 0 -7 -6 -3 -12 6 -10 4 -10 -7 0 -19 18 -26 15 -31 -13z"/>
<path d="M4332 1935 c0 -16 2 -22 5 -12 2 9 2 23 0 30 -3 6 -5 -1 -5 -18z"/>
<path d="M3130 1935 c0 -20 5 -25 25 -25 28 0 31 9 13 29 -10 11 -10 13 0 7 6
-4 12 -2 12 3 0 6 -11 11 -25 11 -20 0 -25 -5 -25 -25z"/>
<path d="M3210 1935 c0 -21 2 -24 14 -13 7 7 11 19 9 25 -9 22 -23 14 -23 -12z"/>
<path d="M3000 1665 c0 -18 5 -25 19 -25 22 0 36 29 21 44 -7 7 -10 3 -10 -12
0 -12 -5 -22 -11 -22 -6 0 -9 9 -6 20 3 11 1 20 -4 20 -5 0 -9 -11 -9 -25z"/>
<path d="M3071 1668 c-1 -22 4 -28 19 -28 11 0 20 4 20 10 0 5 -6 7 -14 4 -9
-4 -16 3 -19 18 -4 21 -4 20 -6 -4z"/>
<path d="M3147 1666 c4 -20 8 -22 18 -13 7 7 9 14 4 15 -5 2 -7 8 -3 13 3 5
-1 9 -9 9 -10 0 -13 -8 -10 -24z"/>
<path d="M4310 1679 c0 -5 5 -7 10 -4 6 3 10 8 10 11 0 2 -4 4 -10 4 -5 0 -10
-5 -10 -11z"/>
<path d="M4340 1671 c0 -11 -8 -22 -17 -24 -14 -4 -12 -5 5 -6 17 -1 22 4 22
24 0 14 -2 25 -5 25 -3 0 -5 -9 -5 -19z"/>
<path d="M4456 1675 c4 -8 13 -15 21 -15 12 0 12 2 -1 15 -8 8 -17 15 -20 15
-3 0 -3 -7 0 -15z"/>
<path d="M4405 1650 c-3 -5 -1 -10 4 -10 6 0 11 5 11 10 0 6 -2 10 -4 10 -3 0
-8 -4 -11 -10z"/>
<path d="M3620 1463 c0 -18 6 -23 26 -23 19 0 25 4 20 15 -3 8 -1 15 4 15 6 0
10 5 10 10 0 6 -13 9 -30 8 -24 -2 -30 -7 -30 -25z"/>
<path d="M3760 1481 c0 -5 -3 -16 -6 -25 -5 -12 0 -16 20 -16 16 0 26 6 26 15
0 8 -5 15 -11 15 -5 0 -7 -4 -4 -10 3 -5 -1 -10 -10 -10 -13 0 -14 4 -5 20 7
14 7 20 0 20 -5 0 -10 -4 -10 -9z"/>
<path d="M3810 1465 c0 -28 12 -32 29 -11 10 12 8 17 -8 26 -19 9 -21 8 -21
-15z"/>
<path d="M3014 1483 c-32 -6 -21 -53 12 -53 19 0 24 5 24 24 0 28 -7 33 -36
29z"/>
<path d="M3081 1459 c1 -19 3 -26 6 -16 3 10 9 14 16 10 7 -4 5 2 -3 13 -8 10
-16 21 -17 23 -2 2 -2 -11 -2 -30z"/>
<path d="M2935 1470 c-3 -5 -1 -10 5 -10 7 0 10 -7 6 -15 -3 -8 -2 -15 2 -15
11 0 32 37 25 44 -10 9 -31 7 -38 -4z"/>
<path d="M4379 1471 c8 -5 12 -18 8 -30 -3 -12 -2 -19 3 -16 4 3 10 16 12 30
4 20 1 25 -16 25 -16 0 -18 -2 -7 -9z"/>
<path d="M4440 1455 c0 -18 5 -25 20 -25 15 0 20 7 20 25 0 18 -5 25 -20 25
-15 0 -20 -7 -20 -25z"/>
<path d="M4516 1465 c4 -8 13 -15 21 -15 12 0 12 2 -1 15 -8 8 -17 15 -20 15
-3 0 -3 -7 0 -15z"/>
<path d="M3364 1351 c-5 -3 -9 -15 -9 -26 0 -14 7 -21 25 -22 14 -1 18 0 8 3
-26 8 -22 32 5 36 22 3 22 3 1 9 -12 4 -26 4 -30 0z"/>
<path d="M3440 1341 c0 -5 7 -12 16 -15 14 -5 15 -4 4 9 -14 17 -20 19 -20 6z"/>
<path d="M3480 1325 c0 -20 5 -25 24 -25 17 0 25 7 28 25 5 22 2 25 -23 25
-24 0 -29 -4 -29 -25z m27 -7 c-3 -8 -6 -5 -6 6 -1 11 2 17 5 13 3 -3 4 -12 1
-19z"/>
<path d="M4078 1352 c-11 -2 -18 -13 -18 -28 0 -19 5 -24 25 -24 21 0 25 4 22
25 -4 29 -7 32 -29 27z m17 -21 c3 -5 2 -12 -3 -15 -5 -3 -9 1 -9 9 0 17 3 19
12 6z"/>
<path d="M3934 1325 c-2 -21 2 -25 25 -24 l26 1 -25 8 c-21 7 -22 8 -5 9 16 1
17 3 6 10 -11 7 -10 10 5 14 15 4 13 5 -6 6 -20 1 -25 -4 -26 -24z"/>
<path d="M4022 1334 c10 -10 20 -16 22 -13 3 3 -5 11 -17 18 -21 13 -21 12 -5
-5z"/>
<path d="M4500 1295 c0 -23 3 -27 10 -15 9 13 10 13 10 0 0 -12 2 -13 9 -1 7
11 9 11 14 0 3 -8 6 -2 6 14 1 18 -4 27 -14 27 -8 0 -15 -6 -15 -12 0 -9 -4
-8 -10 2 -7 12 -10 8 -10 -15z"/>
<path d="M3341 1095 c-1 -12 -5 -25 -10 -30 -6 -6 1 -10 19 -10 24 0 27 2 16
15 -8 8 -16 22 -19 30 -4 11 -6 9 -6 -5z"/>
<path d="M3540 1090 c27 -23 38 -26 21 -6 -9 11 -9 15 1 19 7 3 0 6 -16 6
l-29 1 23 -20z"/>
<path d="M3395 1079 c3 -12 7 -24 9 -27 9 -8 36 7 35 20 0 10 -2 10 -6 1 -8
-21 -26 -15 -20 7 3 13 0 20 -8 20 -9 0 -12 -8 -10 -21z"/>
<path d="M3457 1080 c7 -27 22 -35 36 -21 9 9 8 11 -5 6 -13 -5 -18 -2 -18 10
0 11 5 15 16 11 8 -3 12 -2 9 4 -3 6 -14 10 -25 10 -13 0 -17 -5 -13 -20z"/>
<path d="M3951 1095 c-1 -12 -7 -27 -13 -34 -11 -11 -9 -12 8 -3 15 8 25 8 35
-1 7 -7 6 -3 -2 8 -9 11 -19 27 -22 35 -4 11 -6 9 -6 -5z"/>
<path d="M4009 1108 c-6 -27 -5 -39 7 -48 15 -13 34 -5 33 13 0 9 -2 9 -6 0
-8 -21 -26 -15 -20 7 3 11 1 23 -4 26 -5 3 -9 4 -10 2z"/>
<path d="M4070 1085 c0 -29 17 -42 33 -26 9 9 8 11 -5 6 -12 -5 -18 -2 -18 8
0 8 5 17 12 19 7 3 6 7 -5 11 -13 5 -17 1 -17 -18z"/>
<path d="M4150 1090 c27 -23 38 -26 21 -6 -9 11 -9 15 1 19 7 3 0 6 -16 6
l-29 1 23 -20z"/>
<path d="M3350 790 c0 -23 4 -29 18 -27 28 4 42 17 35 32 -3 10 2 15 16 15 12
0 21 -4 21 -9 0 -5 7 -12 16 -15 14 -5 15 -4 5 8 -9 11 -9 15 1 19 7 3 -15 6
-49 6 l-63 1 0 -30z"/>
<path d="M4032 790 c2 -23 6 -29 23 -26 13 2 21 12 23 29 3 23 0 27 -22 27
-23 0 -26 -4 -24 -30z"/>
<path d="M4098 813 c6 -2 12 -17 13 -31 0 -16 3 -21 6 -12 3 8 11 18 17 22 7
5 6 8 -4 9 -10 0 -8 3 5 9 16 7 13 9 -15 9 -19 -1 -29 -3 -22 -6z"/>
<path d="M3336 562 c-3 -3 -6 -17 -5 -31 0 -14 3 -20 6 -13 2 6 11 12 18 12 7
0 16 -6 19 -12 3 -7 4 0 3 16 -2 27 -26 44 -41 28z"/>
<path d="M3403 563 c9 -2 25 -2 35 0 9 3 1 5 -18 5 -19 0 -27 -2 -17 -5z"/>
<path d="M3268 532 c-4 -14 1 -18 26 -20 28 -1 29 0 9 8 -26 11 -32 23 -6 13
11 -4 14 -3 9 5 -11 18 -33 14 -38 -6z"/>
<path d="M4053 545 c0 -28 4 -31 31 -33 28 -1 29 0 9 8 -24 10 -33 23 -10 14
8 -3 13 4 14 18 0 13 -1 17 -4 11 -3 -7 -11 -13 -18 -13 -7 0 -15 6 -17 13 -3
6 -5 -2 -5 -18z"/>
<path d="M4126 562 c-3 -3 -6 -17 -5 -31 0 -14 3 -20 6 -13 2 6 11 12 18 12 7
0 16 -6 19 -12 3 -7 4 0 3 16 -2 27 -26 44 -41 28z"/>
<path d="M4188 563 c6 -2 12 -17 13 -31 0 -16 3 -21 6 -12 3 8 11 18 17 22 7
5 6 8 -4 9 -10 0 -8 3 5 9 16 7 13 9 -15 9 -19 -1 -29 -3 -22 -6z"/>
<path d="M3090 410 c0 -20 2 -22 10 -10 9 13 10 13 10 0 0 -12 2 -13 9 -1 7
11 9 11 14 0 3 -8 6 -2 6 13 1 24 -3 27 -24 26 -20 -2 -25 -8 -25 -28z"/>
<path d="M4320 413 c0 -22 2 -25 10 -13 9 13 10 13 10 0 0 -12 2 -13 9 -1 7
11 9 11 14 0 3 -8 6 -2 6 14 1 22 -3 27 -24 27 -21 0 -25 -5 -25 -27z"/>
<path d="M2713 1933 c-17 -3 -22 -12 -25 -49 -3 -42 5 -58 15 -31 4 9 8 8 16
-3 7 -10 11 -11 11 -2 0 13 21 12 31 -1 3 -4 13 -5 22 -1 14 5 15 10 5 27 -6
12 -11 24 -10 27 1 3 -4 5 -10 5 -7 0 -12 -6 -10 -12 3 -19 -15 -16 -22 3 -3
8 -10 12 -16 9 -5 -3 -10 -1 -10 4 0 6 19 11 42 11 23 0 39 2 37 4 -8 7 -55
13 -76 9z"/>
<path d="M2843 1933 c-13 -3 -23 -9 -23 -14 0 -6 -6 -7 -12 -3 -10 5 -10 4 -1
-6 9 -10 10 -17 2 -27 -8 -9 -8 -13 -1 -13 6 0 9 -6 7 -12 -4 -10 9 -13 45
-12 27 0 53 4 57 7 3 4 2 7 -4 7 -6 0 -8 11 -5 25 3 17 0 25 -9 25 -11 0 -11
2 1 10 8 5 13 10 10 11 -27 4 -49 5 -67 2z m8 -22 c-8 -5 -12 -18 -8 -30 3
-12 1 -21 -4 -21 -5 0 -9 14 -9 30 0 22 5 30 18 30 13 0 14 -2 3 -9z"/>
<path d="M2542 1589 c-16 -25 -8 -37 13 -19 12 10 15 10 15 -3 0 -8 -12 -25
-27 -36 -19 -14 -23 -20 -12 -21 8 0 24 6 35 14 17 13 21 12 37 -1 29 -27 30
-7 2 22 -15 14 -24 29 -21 33 4 3 11 0 15 -7 10 -16 31 -6 31 15 0 8 -10 14
-24 14 -13 0 -30 2 -38 5 -7 3 -19 -4 -26 -16z"/>
<path d="M2659 1603 c0 -5 -2 -29 -3 -55 -3 -47 -3 -48 23 -41 14 4 37 7 51 6
24 -2 25 0 22 48 -4 46 -5 49 -32 49 -16 0 -31 -6 -33 -12 -4 -10 -6 -10 -6 0
-1 13 -20 17 -22 5z m28 -75 c-3 -8 -6 -5 -6 6 -1 11 2 17 5 13 3 -3 4 -12 1
-19z"/>
<path d="M2941 1288 c0 -28 2 -30 9 -13 7 17 9 17 9 3 1 -27 31 -10 31 18 0
19 -5 24 -25 24 -22 0 -25 -4 -24 -32z"/>
</g>
</svg>
